<svg width="65" height="64" viewBox="0 0 65 64" fill="none" xmlns="http://www.w3.org/2000/svg">
<g clip-path="url(#clip0_428_833)">
<path d="M1.87503 40.4786C1.12048 37.7307 0.736328 34.8766 0.736328 32.0019C0.736328 18.8791 8.97801 6.88016 21.2462 2.14844L22.8547 6.3114C12.2946 10.3853 5.20186 20.7087 5.20186 32.0019C5.20186 34.4791 5.5311 36.9323 6.17933 39.2964L1.87503 40.4786Z" fill="#58D09E"/>
<path d="M21.0321 2.25038C23.686 1.21274 26.4844 0.532348 29.3433 0.231864C42.3942 -1.13984 55.1889 5.80246 61.1771 17.5088L57.205 19.5437C52.0496 9.46722 41.0414 3.49247 29.8101 4.67293C27.3464 4.93187 24.9411 5.51574 22.6577 6.40753L21.0321 2.25038Z" fill="#58D09E"/>
<path d="M47.3835 55.2681C56.098 49.7133 60.9518 39.8553 60.0499 29.5471C59.7304 25.8946 58.7167 22.4063 57.042 19.1857L60.999 17.1215C62.9465 20.8656 64.1262 24.9145 64.4974 29.158C65.5451 41.1336 59.9087 52.5817 49.7836 59.0347L47.3835 55.2681Z" fill="#F9FAFB"/>
<path d="M23.2392 25.3993C25.8285 25.3993 27.9378 26.7801 29.0217 29.1888L29.1074 29.3773L33.4562 27.9005L33.3637 27.6779C31.6797 23.5765 27.8006 21.0273 23.2392 21.0273C20.0322 21.0273 17.4257 22.0553 15.2718 24.1659C13.1316 26.2628 12.0479 28.9011 12.0479 32.0087C12.0479 35.0889 13.1316 37.7135 15.2718 39.8104C17.4257 41.9211 20.0322 42.9489 23.2392 42.9489C27.8006 42.9489 31.6797 40.3997 33.3637 36.3019L33.4562 36.0792L29.1005 34.5989L29.0182 34.7943C28.0476 37.1619 25.8869 38.5769 23.2392 38.5769C21.435 38.5769 19.9122 37.9465 18.7049 36.7061C17.484 35.4487 16.8666 33.8692 16.8666 32.0121C16.8666 30.1413 17.4702 28.5927 18.7049 27.2769C19.9088 26.0299 21.435 25.3993 23.2392 25.3993Z" fill="#F9FAFB"/>
<path d="M50.4781 21.4316L44.2806 37.1138L38.0419 21.4316H32.9385L41.6877 42.8358L35.4627 57.932L39.9249 58.8195L55.3003 21.4316H50.4781Z" fill="#F9FAFB"/>
<path d="M36.2609 55.9859L35.1737 58.6174C34.9575 59.1382 34.4637 59.491 33.9081 59.515C33.5411 59.5287 33.1707 59.539 32.7969 59.539C20.0005 59.5322 8.6789 50.5107 5.87337 38.0801L1.51758 39.0634C3.09183 46.0359 7.04291 52.3643 12.6437 56.8871C18.3097 61.4611 25.4469 63.9863 32.7489 64.0001C32.7591 64.0001 32.8139 64.0001 32.8139 64.0001C33.2427 64.0001 33.6679 63.9898 34.0933 63.9727C36.3843 63.8767 38.4319 62.4411 39.3065 60.3134L40.7263 56.8734L36.2609 55.9859Z" fill="#F9FAFB"/>
</g>
<defs>
<clipPath id="clip0_428_833">
<rect width="64" height="64" fill="white" transform="translate(0.736328)"/>
</clipPath>
</defs>
</svg>
