<svg width="43" height="64" viewBox="0 0 43 64" fill="none" xmlns="http://www.w3.org/2000/svg">
<g clip-path="url(#clip0_428_825)">
<path d="M21.4971 31.9997C21.4971 29.1707 22.6209 26.4576 24.6213 24.4572C26.6217 22.4568 29.3348 21.333 32.1637 21.333C34.9927 21.333 37.7058 22.4568 39.7062 24.4572C41.7066 26.4576 42.8304 29.1707 42.8304 31.9997C42.8304 34.8287 41.7066 37.5418 39.7062 39.5421C37.7058 41.5425 34.9927 42.6663 32.1637 42.6663C29.3348 42.6663 26.6217 41.5425 24.6213 39.5421C22.6209 37.5418 21.4971 34.8287 21.4971 31.9997Z" fill="#1ABCFE"/>
<path d="M0.164062 53.3337C0.164063 50.5047 1.28787 47.7916 3.28826 45.7912C5.28864 43.7908 8.00175 42.667 10.8307 42.667H21.4974V53.3337C21.4974 56.1626 20.3736 58.8757 18.3732 60.8761C16.3728 62.8765 13.6597 64.0003 10.8307 64.0003C8.00175 64.0003 5.28864 62.8765 3.28826 60.8761C1.28787 58.8757 0.164063 56.1626 0.164062 53.3337Z" fill="#0ACF83"/>
<path d="M21.4971 0V21.3333H32.1637C34.9927 21.3333 37.7058 20.2095 39.7062 18.2091C41.7066 16.2088 42.8304 13.4956 42.8304 10.6667C42.8304 7.83769 41.7066 5.12458 39.7062 3.12419C37.7058 1.12381 34.9927 0 32.1637 0L21.4971 0Z" fill="#FF7262"/>
<path d="M0.164063 10.6667C0.164063 13.4956 1.28787 16.2088 3.28826 18.2091C5.28864 20.2095 8.00175 21.3333 10.8307 21.3333H21.4974V0H10.8307C8.00175 0 5.28864 1.12381 3.28826 3.12419C1.28787 5.12458 0.164063 7.83769 0.164063 10.6667Z" fill="#F24E1E"/>
<path d="M0.164063 31.9997C0.164063 34.8287 1.28787 37.5418 3.28826 39.5421C5.28864 41.5425 8.00175 42.6663 10.8307 42.6663H21.4974V21.333H10.8307C8.00175 21.333 5.28864 22.4568 3.28826 24.4572C1.28787 26.4576 0.164063 29.1707 0.164063 31.9997Z" fill="#A259FF"/>
</g>
<defs>
<clipPath id="clip0_428_825">
<rect width="42.6667" height="64" fill="white" transform="translate(0.164062)"/>
</clipPath>
</defs>
</svg>
