<svg width="65" height="64" viewBox="0 0 65 64" fill="none" xmlns="http://www.w3.org/2000/svg">
<path d="M56.8139 29.467L35.0805 7.73366C34.4139 7.06699 33.4805 6.66699 32.5472 6.66699C31.6139 6.66699 30.6805 7.06699 30.0139 7.73366L25.3472 12.4003L30.8139 17.867C31.3472 17.6003 31.8805 17.467 32.5472 17.467C34.8139 17.467 36.5472 19.2003 36.5472 21.467C36.5472 22.1337 36.4139 22.667 36.1472 23.2003L41.4805 28.5337C42.0139 28.267 42.5472 28.1337 43.2139 28.1337C45.4805 28.1337 47.2139 29.867 47.2139 32.1337C47.2139 34.4003 45.4805 36.1337 43.2139 36.1337C40.9472 36.1337 39.2139 34.4003 39.2139 32.1337C39.2139 31.467 39.3472 30.9337 39.6139 30.4003L34.2805 25.067C34.1472 25.067 34.0139 25.2003 33.8805 25.2003V39.067C35.4805 39.6003 36.5472 41.067 36.5472 42.8003C36.5472 45.067 34.8139 46.8003 32.5472 46.8003C30.2805 46.8003 28.5472 45.067 28.5472 42.8003C28.5472 41.067 29.6139 39.6003 31.2139 39.067V25.067C29.6139 24.5337 28.5472 23.067 28.5472 21.3337C28.5472 20.667 28.6805 20.1337 28.9472 19.6003L23.4805 14.1337L8.28053 29.467C7.61387 30.1337 7.21387 31.067 7.21387 32.0003C7.21387 32.9337 7.61387 33.867 8.28053 34.5337L30.0139 56.267C30.6805 56.9337 31.6139 57.3337 32.5472 57.3337C33.4805 57.3337 34.4139 56.9337 35.0805 56.267L56.8139 34.5337C57.4805 33.867 57.8805 32.9337 57.8805 32.0003C57.8805 31.067 57.4805 30.1337 56.8139 29.467Z" fill="#F4511E"/>
</svg>
