<svg width="31" height="64" viewBox="0 0 31 64" fill="none" xmlns="http://www.w3.org/2000/svg">
<g clip-path="url(#clip0_428_809)">
<path d="M21.5435 7.13325C18.8456 3.94632 16.5223 0.709589 16.0477 0.0373468C15.9977 -0.0124489 15.9228 -0.0124489 15.8728 0.0373468C15.3982 0.709589 13.0749 3.94632 10.377 7.13325C-12.7804 36.5376 14.0242 56.3813 14.0242 56.3813L14.249 56.5306C14.4489 59.5932 14.9485 64 14.9485 64H15.9477H16.947C16.947 64 17.4466 59.618 17.6465 56.5306L17.8713 56.3565C17.8963 56.3565 44.7009 36.5376 21.5435 7.13325ZM15.9477 55.933C15.9477 55.933 14.7487 54.9122 14.4239 54.3893V54.3397L15.8728 22.3209C15.8728 22.2213 16.0227 22.2213 16.0227 22.3209L17.4716 54.3397V54.3893C17.1468 54.9122 15.9477 55.933 15.9477 55.933Z" fill="#00684A"/>
</g>
<defs>
<clipPath id="clip0_428_809">
<rect width="29.7674" height="64" fill="white" transform="translate(0.952148)"/>
</clipPath>
</defs>
</svg>
