<svg width="67" height="64" viewBox="0 0 67 64" fill="none" xmlns="http://www.w3.org/2000/svg">
<path fill-rule="evenodd" clip-rule="evenodd" d="M38.7165 1.06152C38.2647 1.06152 37.8452 1.15861 37.4579 1.28806C38.2808 1.83821 38.7326 2.56636 38.9585 3.39158C38.9747 3.50485 39.0069 3.58576 39.0231 3.69902C39.0392 3.79611 39.0553 3.89319 39.0553 3.99028C39.1199 5.4142 38.6842 5.59219 38.3776 6.4336C37.9097 7.51773 38.0388 8.68276 38.6035 9.62126C38.6519 9.73452 38.7165 9.86397 38.7971 9.97724C38.184 5.88345 41.5885 5.26858 42.2178 3.99028C42.2662 2.87379 41.3465 2.12947 40.6204 1.61168C39.9266 1.19097 39.2973 1.06152 38.7165 1.06152ZM43.8474 1.98384C43.7828 2.356 43.8313 2.25891 43.8152 2.45309C43.799 2.58253 43.799 2.74435 43.7829 2.87379C43.7507 3.00324 43.7183 3.13269 43.67 3.26214C43.6377 3.39158 43.5893 3.52103 43.5409 3.65048C43.4763 3.77993 43.4279 3.89319 43.3634 4.02264C43.315 4.08739 43.2827 4.15209 43.2343 4.21681C43.2021 4.26536 43.1698 4.3139 43.1375 4.36244C43.0568 4.47571 42.9762 4.58898 42.8955 4.68606C42.7987 4.78315 42.718 4.89641 42.6051 4.97732V4.99352C42.5082 5.07443 42.4114 5.17151 42.2985 5.25242C41.9597 5.51131 41.5724 5.70548 41.2174 5.9482C41.1045 6.0291 40.9916 6.09383 40.8947 6.19091C40.7818 6.27182 40.685 6.35272 40.5882 6.44981C40.4752 6.54689 40.3946 6.64398 40.2977 6.75725C40.2171 6.85434 40.1203 6.9676 40.0557 7.08087C39.975 7.19413 39.8944 7.3074 39.8298 7.42067C39.7653 7.55011 39.7169 7.66338 39.6523 7.79283C39.6039 7.92227 39.5555 8.03554 39.5233 8.16499C39.4749 8.31062 39.4426 8.44007 39.4103 8.56952C39.3942 8.63427 39.3942 8.71514 39.3781 8.77987C39.3619 8.84462 39.3619 8.90931 39.3458 8.97404C39.3458 9.10349 39.3297 9.24912 39.3297 9.37856C39.3297 9.47565 39.3297 9.57273 39.3458 9.66982C39.3458 9.79927 39.362 9.92871 39.3942 10.0743C39.4104 10.2038 39.4426 10.3332 39.4749 10.4627C39.5233 10.5921 39.5556 10.7216 39.604 10.851C39.6362 10.9319 39.6847 11.0128 39.7169 11.0776L36.0059 9.63746C35.3766 9.45947 34.7635 9.29766 34.1342 9.15203C33.7954 9.07113 33.4565 8.99022 33.1177 8.90931C32.1496 8.71514 31.1654 8.56952 30.1811 8.47243C30.1489 8.47243 30.1327 8.45623 30.1005 8.45623C29.1324 8.35915 28.1804 8.3106 27.2123 8.3106C26.5023 8.3106 25.7924 8.34294 25.0986 8.3915C24.1144 8.45626 23.1301 8.58568 22.1459 8.74748C21.9039 8.77982 21.6618 8.8284 21.4198 8.87694C20.9196 8.97402 20.4356 9.08729 19.9677 9.20056C19.7256 9.26531 19.4836 9.33 19.2416 9.39472C18.9996 9.49181 18.7737 9.60508 18.5478 9.70217C18.3703 9.78307 18.1928 9.86397 18.0153 9.94488C17.9831 9.96108 17.9507 9.96108 17.9346 9.97722C17.7733 10.0581 17.6281 10.1228 17.4829 10.2038C17.4345 10.22 17.4022 10.2361 17.3699 10.2523C17.1924 10.3332 17.0149 10.4303 16.8697 10.5112C16.7568 10.5597 16.6438 10.6245 16.547 10.673C16.4986 10.7053 16.4341 10.7377 16.4018 10.7539C16.2566 10.8348 16.1114 10.9157 15.9823 10.9966C15.8371 11.0775 15.708 11.1584 15.5951 11.2393C15.4821 11.3202 15.3692 11.385 15.2724 11.4659C15.2562 11.4821 15.2401 11.4821 15.224 11.4982C15.1271 11.5629 15.0142 11.6438 14.9174 11.7247C14.9174 11.7247 14.9012 11.7409 14.8851 11.7571C14.8045 11.8218 14.7238 11.8865 14.6431 11.9512C14.6109 11.9674 14.5786 11.9998 14.5463 12.016C14.4656 12.0807 14.385 12.1616 14.3043 12.2263C14.2881 12.2587 14.2559 12.2749 14.2397 12.2911C14.1429 12.3882 14.0461 12.4691 13.9493 12.5662C13.9331 12.5662 13.9331 12.5824 13.917 12.5985C13.8202 12.6794 13.7234 12.7765 13.6266 12.8736C13.6104 12.8898 13.6104 12.9059 13.5944 12.9059C13.5137 12.9868 13.433 13.0677 13.3523 13.1648C13.3201 13.1972 13.2717 13.2296 13.2394 13.2619C13.1587 13.359 13.0619 13.4561 12.9651 13.5532C12.9489 13.5855 12.9167 13.6017 12.9005 13.6341C12.7715 13.7635 12.6585 13.893 12.5294 14.0224C12.5133 14.0386 12.4972 14.0547 12.481 14.071C12.2229 14.346 11.9486 14.6211 11.6581 14.8638C11.3677 15.1227 11.0611 15.3654 10.7546 15.5758C10.4319 15.8023 10.1253 15.9965 9.78647 16.1907C9.46377 16.3686 9.12493 16.5305 8.76996 16.6761C8.43113 16.8217 8.07616 16.9512 7.72119 17.0644C7.04351 17.2101 6.34971 17.4851 5.75271 17.5337C5.62363 17.5337 5.47842 17.566 5.34934 17.5822C5.20412 17.6146 5.07504 17.647 4.94596 17.6793C4.81689 17.7278 4.6878 17.7764 4.55872 17.8249C4.42964 17.8735 4.30056 17.9382 4.17148 18.0029C4.05854 18.0838 3.92946 18.1486 3.81651 18.2295C3.70357 18.3104 3.59062 18.4074 3.49381 18.5045C3.38087 18.5854 3.26792 18.6987 3.17111 18.7958C3.0743 18.9091 2.97748 19.0061 2.89681 19.1194C2.81614 19.2489 2.71933 19.3621 2.65478 19.4916C2.57411 19.6048 2.49344 19.7343 2.42889 19.8637C2.36433 20.0094 2.29982 20.1388 2.25141 20.2844C2.203 20.4139 2.1546 20.5595 2.10619 20.7051C2.07395 20.8346 2.04163 20.964 2.02552 21.0935C2.02552 21.1097 2.00936 21.1258 2.00936 21.142C1.97712 21.2877 1.97712 21.4818 1.96096 21.5789C1.9448 21.6922 1.92871 21.7893 1.92871 21.9025C1.92871 21.9673 1.92871 22.0482 1.94487 22.1129C1.96103 22.2262 1.97712 22.3232 2.00944 22.4203C2.04168 22.5174 2.074 22.6145 2.12238 22.7116V22.7278C2.17078 22.8249 2.23533 22.922 2.29986 23.0191C2.36443 23.1161 2.42895 23.2132 2.50962 23.3103C2.59029 23.3912 2.68711 23.4883 2.78392 23.5692C2.88073 23.6663 2.97754 23.7472 3.09048 23.8281C3.47772 24.1679 3.57453 24.2812 4.07472 24.5401C4.15539 24.5886 4.23607 24.621 4.33288 24.6695C4.34905 24.6695 4.36513 24.6857 4.38129 24.6857C4.38129 24.718 4.38129 24.7343 4.39745 24.7666C4.41361 24.8961 4.44586 25.0255 4.47812 25.155C4.51037 25.3006 4.55881 25.4301 4.60721 25.5433C4.65562 25.6404 4.68788 25.7375 4.73629 25.8346C4.75245 25.8669 4.76854 25.8993 4.7847 25.9155C4.84926 26.0449 4.91377 26.1582 4.97831 26.2715C5.05899 26.3847 5.13966 26.498 5.22034 26.6113C5.30101 26.7083 5.39782 26.8216 5.49463 26.9187C5.59144 27.0158 5.68825 27.0967 5.8012 27.1938C5.8012 27.1938 5.81737 27.21 5.83345 27.21C5.93026 27.2909 6.02707 27.3718 6.12388 27.4365C6.23682 27.5174 6.34977 27.5822 6.47885 27.6469C6.5918 27.7116 6.72088 27.7763 6.84995 27.8249C6.94677 27.8734 7.05971 27.9058 7.17265 27.9381C7.18882 27.9544 7.2049 27.9544 7.23722 27.9705C7.30179 27.9867 7.38243 28.0028 7.44697 28.019C7.39857 28.8928 7.38241 29.718 7.51154 30.0093C7.65675 30.3329 8.36669 29.3459 9.07664 28.2132C8.97983 29.3297 8.91528 30.6403 9.07664 31.0287C9.25412 31.4332 10.2222 30.1711 11.0612 28.7795C22.501 26.1259 32.9404 34.0545 34.0375 45.2517C33.8278 43.5042 31.6818 42.5333 30.6976 42.7761C30.2135 43.9735 29.3906 45.5106 28.0676 46.4653C28.1805 45.3974 28.1321 44.2971 27.9062 43.2291C27.5513 44.7178 26.8574 46.1093 25.9055 47.3067C24.3726 47.42 22.8398 46.6757 22.0331 45.5592C21.9685 45.5106 21.9524 45.4136 21.904 45.3488C21.8556 45.2356 21.8072 45.1223 21.7749 45.009C21.7265 44.8958 21.6942 44.7825 21.6781 44.6692C21.6619 44.556 21.6619 44.4427 21.6619 44.3133C21.6619 44.2323 21.6619 44.1514 21.6619 44.0705C21.6781 43.9573 21.7103 43.844 21.7426 43.7307C21.7748 43.6175 21.8072 43.5042 21.8556 43.3909C21.9201 43.2777 21.9685 43.1644 22.0492 43.0511C22.3235 42.2744 22.3235 41.6434 21.8233 41.2712C21.7265 41.2065 21.6297 41.158 21.5167 41.1094C21.4521 41.0932 21.3715 41.0609 21.307 41.0447C21.2586 41.0285 21.2263 41.0123 21.1779 40.9961C21.0649 40.9638 20.952 40.9314 20.839 40.9152C20.7261 40.8829 20.6132 40.8667 20.5002 40.8667C20.3873 40.8505 20.2582 40.8343 20.1452 40.8343C20.0646 40.8343 19.9839 40.8505 19.9032 40.8505C19.7741 40.8505 19.6612 40.8668 19.5482 40.8991C19.4353 40.9153 19.3224 40.9314 19.2094 40.9638C19.0965 40.9962 18.9835 41.0286 18.8706 41.0771C18.7576 41.1256 18.6608 41.1742 18.5479 41.2227C18.4511 41.2713 18.3543 41.336 18.2413 41.3845C14.4818 43.844 16.7246 49.6045 19.2901 51.2711C18.322 51.4491 17.3377 51.6595 17.0634 51.8698C17.0473 51.886 17.0312 51.9021 17.0312 51.9021C17.725 52.3228 18.4511 52.6788 19.2094 52.9863C20.2421 53.3261 21.3393 53.6335 21.8233 53.763V53.7792C23.1625 54.0542 24.5179 54.1513 25.8893 54.0704C33.0372 53.5688 38.8942 48.1158 39.9591 40.9315C39.9913 41.0771 40.0237 41.2065 40.0559 41.3522C40.1043 41.6434 40.1688 41.9509 40.2011 42.2583V42.2745C40.2334 42.4202 40.2495 42.5658 40.2657 42.6952V42.76C40.2819 42.9056 40.2979 43.0512 40.2979 43.1807C40.3141 43.3587 40.3302 43.5367 40.3302 43.7147V43.9736C40.3302 44.0545 40.3463 44.1515 40.3463 44.2325C40.3463 44.3295 40.3302 44.4266 40.3302 44.5237V44.7502C40.3302 44.8635 40.314 44.9606 40.314 45.0739C40.314 45.1386 40.314 45.2033 40.2978 45.2842C40.2978 45.3975 40.2817 45.5108 40.2817 45.6402C40.2655 45.6887 40.2655 45.7373 40.2655 45.7858C40.2493 45.9153 40.2333 46.0285 40.2171 46.158C40.2171 46.2065 40.2171 46.2551 40.2009 46.3036C40.1848 46.4654 40.1525 46.6111 40.1364 46.7729V46.7891V46.8053C40.1041 46.9509 40.0718 47.1127 40.0396 47.2584V47.3069C40.0073 47.4525 39.975 47.5982 39.9428 47.7438C39.9428 47.76 39.9266 47.7923 39.9266 47.8085C39.8943 47.9542 39.862 48.0998 39.8137 48.2454V48.294C39.7653 48.4558 39.7168 48.6014 39.6846 48.747C39.6684 48.7632 39.6684 48.7794 39.6684 48.7794C39.62 48.9412 39.5716 49.103 39.5232 49.2648C39.4586 49.4266 39.4103 49.5722 39.3457 49.734C39.2812 49.8959 39.2328 50.0577 39.1682 50.2033C39.1037 50.3651 39.0392 50.5107 38.9746 50.6725H38.9584C38.8939 50.8182 38.8293 50.98 38.7487 51.1256C38.7325 51.1742 38.7164 51.2065 38.7003 51.2389C38.6841 51.2551 38.6841 51.2712 38.668 51.2874C37.6192 53.4071 36.0703 55.2679 34.1341 56.7242C34.005 56.8051 33.8759 56.9022 33.7468 56.9993C33.7146 57.0316 33.6662 57.0478 33.6339 57.0802C33.5209 57.1611 33.408 57.242 33.2789 57.3229L33.3273 57.42H33.3435C33.5694 57.3877 33.7953 57.3553 34.0212 57.3229H34.0373C34.4568 57.2582 34.8763 57.1773 35.2959 57.0964C35.4088 57.0802 35.5379 57.0478 35.6508 57.0155C35.7315 56.9992 35.796 56.9831 35.8767 56.9669C35.9897 56.9507 36.1026 56.9184 36.2155 56.9022C36.3124 56.8698 36.4092 56.8536 36.506 56.8213C38.1195 56.4329 39.6846 55.899 41.1851 55.2679C38.6197 58.7792 35.1829 61.6108 31.1653 63.4717C33.0208 63.3422 34.8763 63.0348 36.6673 62.517C43.1697 60.5914 48.6395 56.2064 51.9149 50.3003C51.2534 54.0382 49.769 57.598 47.5746 60.7047C49.1397 59.6691 50.5757 58.4717 51.8827 57.1125C55.4969 53.3262 57.8688 48.5204 58.6755 43.3587C59.2241 45.9153 59.3855 48.5528 59.1434 51.1579C70.7929 34.8637 60.1115 17.9708 55.6421 13.521C55.6259 13.4887 55.6099 13.4725 55.6099 13.4401C55.5937 13.4563 55.5937 13.4563 55.5937 13.4724C55.5937 13.4562 55.5937 13.4562 55.5775 13.4401C55.5775 13.6343 55.5614 13.8284 55.5453 14.0226C55.4969 14.3948 55.4485 14.7508 55.3839 15.1067C55.3033 15.4627 55.2065 15.8187 55.1096 16.1747C54.9967 16.5145 54.8676 16.8705 54.7224 17.2103C54.5772 17.5339 54.4158 17.8737 54.2384 18.1973C54.0609 18.5048 53.8673 18.8284 53.6575 19.1196C53.4477 19.4271 53.2219 19.7183 52.996 19.9934C52.7539 20.2847 52.4958 20.5436 52.2376 20.8024C52.0763 20.9481 51.9311 21.0775 51.7697 21.207C51.6406 21.3202 51.5277 21.4173 51.3986 21.5306C51.1082 21.7571 50.8177 21.9675 50.495 22.1616C50.1885 22.3558 49.8658 22.55 49.5431 22.7118C49.2042 22.8736 48.8654 23.0192 48.5266 23.1649C48.1877 23.2943 47.8328 23.4076 47.4778 23.5047C47.1228 23.6017 46.7517 23.6827 46.3967 23.7474C46.0256 23.8121 45.6545 23.8445 45.2996 23.8768C45.0414 23.893 44.7832 23.9092 44.5251 23.9092C44.154 23.9092 43.7829 23.8768 43.4279 23.8444C43.0568 23.8121 42.6857 23.7635 42.3307 23.6826C41.9596 23.6179 41.6046 23.5208 41.2497 23.4075H41.2335C41.5885 23.3752 41.9434 23.3428 42.2984 23.2781C42.6695 23.2133 43.0245 23.1325 43.3795 23.0354C43.7344 22.9383 44.0894 22.825 44.4282 22.6956C44.7832 22.5661 45.122 22.4043 45.4448 22.2425C45.7836 22.0807 46.0902 21.9027 46.4128 21.7085C46.7194 21.4982 47.026 21.2878 47.3164 21.0613C47.6068 20.8348 47.8811 20.592 48.1393 20.3331C48.4136 20.0904 48.6556 19.8153 48.8976 19.5403C49.1397 19.249 49.3656 18.9578 49.5753 18.6665C49.6076 18.618 49.6399 18.5532 49.6721 18.5047C49.8335 18.2458 49.9948 17.9869 50.14 17.728C50.3175 17.4044 50.4789 17.0808 50.6241 16.741C50.7693 16.4012 50.8984 16.0614 51.0113 15.7054C51.1243 15.3656 51.205 15.0096 51.2856 14.6536C51.3502 14.2815 51.4147 13.9255 51.447 13.5695C51.4792 13.1973 51.5115 12.8252 51.5115 12.4692C51.5115 12.2103 51.4954 11.9514 51.4793 11.6925C51.4471 11.3203 51.3986 10.9644 51.3502 10.6084C51.2857 10.2362 51.205 9.88024 51.1082 9.52426C50.9953 9.18446 50.8823 8.82848 50.7532 8.48868C50.6241 8.14888 50.4628 7.80908 50.3014 7.48545C50.124 7.16184 49.9465 6.83822 49.7528 6.53078C49.5431 6.22335 49.3333 5.93209 49.1074 5.64083C48.8654 5.36575 48.6234 5.09067 48.3652 4.8156C48.2362 4.68615 48.0909 4.54052 47.9457 4.41108C47.2197 3.84474 46.4613 3.31076 45.703 2.82534C45.59 2.76059 45.4932 2.71207 45.3803 2.66353C44.8478 2.32373 44.3476 2.14564 43.8474 1.98384Z" fill="#E0234E"/>
</svg>
