<svg width="65" height="64" viewBox="0 0 65 64" fill="none" xmlns="http://www.w3.org/2000/svg">
<g clip-path="url(#clip0_428_778)">
<mask id="mask0_428_778" style="mask-type:alpha" maskUnits="userSpaceOnUse" x="0" y="0" width="65" height="64">
<path d="M32.3398 64C50.013 64 64.3398 49.6731 64.3398 32C64.3398 14.3269 50.013 0 32.3398 0C14.6667 0 0.339844 14.3269 0.339844 32C0.339844 49.6731 14.6667 64 32.3398 64Z" fill="black"/>
</mask>
<g mask="url(#mask0_428_778)">
<path d="M32.3396 62.9331C49.4236 62.9331 63.2729 49.0837 63.2729 31.9997C63.2729 14.9157 49.4236 1.06641 32.3396 1.06641C15.2556 1.06641 1.40625 14.9157 1.40625 31.9997C1.40625 49.0837 15.2556 62.9331 32.3396 62.9331Z" fill="black" stroke="white" stroke-width="6"/>
<path d="M53.4984 56.0073L24.9239 19.2002H19.54V44.7895H23.8471V24.6699L50.1175 58.6118C51.3029 57.8185 52.4321 56.9478 53.4984 56.0073Z" fill="url(#paint0_linear_428_778)"/>
<path d="M45.4952 19.2002H41.2285V44.8002H45.4952V19.2002Z" fill="url(#paint1_linear_428_778)"/>
</g>
</g>
<defs>
<linearGradient id="paint0_linear_428_778" x1="39.0956" y1="41.4224" x2="51.7178" y2="57.0669" gradientUnits="userSpaceOnUse">
<stop stop-color="white"/>
<stop offset="1" stop-color="white" stop-opacity="0"/>
</linearGradient>
<linearGradient id="paint1_linear_428_778" x1="43.3618" y1="19.2002" x2="43.2904" y2="38.0002" gradientUnits="userSpaceOnUse">
<stop stop-color="white"/>
<stop offset="1" stop-color="white" stop-opacity="0"/>
</linearGradient>
<clipPath id="clip0_428_778">
<rect width="64" height="64" fill="white" transform="translate(0.339844)"/>
</clipPath>
</defs>
</svg>
