<svg width="58" height="64" viewBox="0 0 58 64" fill="none" xmlns="http://www.w3.org/2000/svg">
<g clip-path="url(#clip0_428_788)">
<path d="M29.1071 64C28.2491 64 27.4483 63.7668 26.7047 63.3586L19.0974 58.7517C17.9535 58.1102 18.5254 57.877 18.8686 57.7603C20.413 57.2355 20.699 57.1189 22.3005 56.1859C22.4721 56.0692 22.7009 56.1275 22.8724 56.2442L28.7066 59.8014C28.9355 59.918 29.2214 59.918 29.393 59.8014L52.215 46.3307C52.4438 46.214 52.5582 45.9808 52.5582 45.6892V18.806C52.5582 18.5145 52.4438 18.2812 52.215 18.1646L29.393 4.75223C29.1643 4.63561 28.8782 4.63561 28.7066 4.75223L5.8847 18.1646C5.65591 18.2812 5.54151 18.5728 5.54151 18.806V45.6892C5.54151 45.9224 5.65591 46.214 5.8847 46.3307L12.1193 50.0045C15.494 51.7539 17.6102 49.7129 17.6102 47.6719V21.1386C17.6102 20.7888 17.8963 20.4389 18.2966 20.4389H21.2138C21.5569 20.4389 21.9001 20.7305 21.9001 21.1386V47.6719C21.9001 52.2788 19.4406 54.9613 15.1507 54.9613C13.8352 54.9613 12.8057 54.9613 9.88853 53.5034L3.88278 50.0045C2.39564 49.1297 1.48047 47.4969 1.48047 45.7475V18.8644C1.48047 17.115 2.39564 15.4822 3.88278 14.6074L26.7047 1.13672C28.1347 0.320313 30.0794 0.320313 31.5094 1.13672L54.3313 14.6074C55.8184 15.4822 56.7336 17.115 56.7336 18.8644V45.7475C56.7336 47.4969 55.8184 49.1297 54.3313 50.0045L31.5094 63.4752C30.823 63.7668 29.965 64 29.1071 64Z" fill="#5FA04E"/>
<path d="M36.1996 45.5138C26.19 45.5138 24.1309 40.8486 24.1309 36.8832C24.1309 36.5334 24.4168 36.1835 24.8172 36.1835H27.7915C28.1347 36.1835 28.4207 36.4167 28.4207 36.7666C28.8782 39.8573 30.1938 41.3735 36.2568 41.3735C41.0614 41.3735 43.1205 40.2655 43.1205 37.6413C43.1205 36.1252 42.5485 35.0172 35.0556 34.259C28.821 33.6176 24.9316 32.2181 24.9316 27.1447C24.9316 22.4211 28.821 19.6221 35.3416 19.6221C42.6629 19.6221 46.2664 22.1879 46.724 27.7861C46.724 27.9611 46.6668 28.136 46.5524 28.311C46.438 28.4276 46.2664 28.5442 46.0948 28.5442H43.0633C42.7773 28.5442 42.4913 28.311 42.4341 28.0194C41.7478 24.8121 39.9746 23.7624 35.2844 23.7624C30.0222 23.7624 29.3931 25.6285 29.3931 27.028C29.3931 28.7191 30.1366 29.244 37.2291 30.177C44.2645 31.1101 47.582 32.4513 47.582 37.4664C47.582 42.5981 43.4065 45.5138 36.1996 45.5138Z" fill="#5FA04E"/>
</g>
<defs>
<clipPath id="clip0_428_788">
<rect width="56.32" height="64" fill="white" transform="translate(0.847656)"/>
</clipPath>
</defs>
</svg>
