<svg width="70" height="64" viewBox="0 0 70 64" fill="none" xmlns="http://www.w3.org/2000/svg">
<g clip-path="url(#clip0_428_770)">
<path d="M34.9238 38.7725C38.5961 38.7725 41.5731 35.7404 41.5731 32C41.5731 28.2597 38.5961 25.2275 34.9238 25.2275C31.2514 25.2275 28.2744 28.2597 28.2744 32C28.2744 35.7404 31.2514 38.7725 34.9238 38.7725Z" fill="#087EA4"/>
<path d="M34.9235 47.2389C53.2852 47.2389 68.1703 40.4166 68.1703 32.0008C68.1703 23.585 53.2852 16.7627 34.9235 16.7627C16.5618 16.7627 1.67676 23.585 1.67676 32.0008C1.67676 40.4166 16.5618 47.2389 34.9235 47.2389Z" stroke="#087EA4" stroke-width="3"/>
<path d="M21.9669 39.6195C31.1478 55.8156 44.3912 65.5341 51.5469 61.3262C58.7027 57.1183 57.0611 40.5775 47.8802 24.3814C38.6994 8.18524 25.456 -1.53317 18.3002 2.67471C11.1444 6.8826 12.7861 23.4233 21.9669 39.6195Z" stroke="#087EA4" stroke-width="3"/>
<path d="M21.9672 24.3816C12.7864 40.5777 11.1448 57.1185 18.3005 61.3264C25.4563 65.5342 38.6997 55.8158 47.8805 39.6197C57.0614 23.4235 58.703 6.88278 51.5473 2.6749C44.3915 -1.53299 31.1481 8.18542 21.9672 24.3816Z" stroke="#087EA4" stroke-width="3"/>
</g>
<defs>
<clipPath id="clip0_428_770">
<rect width="69.8182" height="64" fill="white" transform="translate(0.0146484)"/>
</clipPath>
</defs>
</svg>
