<svg width="65" height="64" viewBox="0 0 65 64" fill="none" xmlns="http://www.w3.org/2000/svg">
<path d="M53.7805 34.6084C51.7299 34.6191 49.9539 35.1111 48.4659 35.8457C47.9219 34.7591 47.3699 33.8031 47.2779 33.0924C47.1699 32.2631 47.0445 31.7671 47.1752 30.7791C47.3059 29.7911 47.8779 28.3911 47.8699 28.2857C47.8619 28.1804 47.7419 27.6777 46.5592 27.6684C45.3765 27.6604 44.3645 27.8964 44.2459 28.2084C44.1272 28.5204 43.8992 29.2231 43.7579 29.9564C43.5512 31.0284 41.3965 34.8537 40.1739 36.8537C39.7739 36.0724 39.4339 35.3844 39.3632 34.8404C39.2552 34.0111 39.1299 33.5151 39.2605 32.5271C39.3912 31.5391 39.9632 30.1391 39.9552 30.0337C39.9472 29.9284 39.8272 29.4257 38.6445 29.4164C37.4619 29.4084 36.4499 29.6444 36.3312 29.9564C36.2125 30.2684 36.0845 30.9977 35.8432 31.7044C35.6005 32.4097 32.7379 38.7897 31.9872 40.4444C31.6045 41.2871 31.2725 41.9644 31.0379 42.4257L31.0365 42.4231C31.0365 42.4231 31.0219 42.4537 30.9979 42.5057C30.7965 42.8991 30.6779 43.1164 30.6779 43.1164C30.6779 43.1164 30.6792 43.1191 30.6819 43.1244C30.5219 43.4137 30.3512 43.6817 30.2672 43.6817C30.2085 43.6817 30.0899 42.9124 30.2925 41.8564C30.7192 39.6431 31.7419 36.1924 31.7325 36.0724C31.7272 36.0111 31.9232 35.4097 31.0645 35.0951C30.2299 34.7897 29.9325 35.2991 29.8565 35.3004C29.7832 35.3017 29.7285 35.4804 29.7285 35.4804C29.7285 35.4804 30.6579 31.5991 27.9552 31.5991C26.2645 31.5991 23.9232 33.4484 22.7699 35.1244C22.0419 35.5217 20.4832 36.3724 18.8312 37.2804C18.1965 37.6297 17.5485 37.9857 16.9339 38.3244C16.8925 38.2777 16.8499 38.2324 16.8072 38.1857C13.5285 34.6884 7.46986 32.2151 7.72586 27.5124C7.81919 25.8031 8.41386 21.3017 19.3699 15.8431C28.3445 11.3711 35.5299 12.6017 36.7712 15.3284C38.5445 19.2257 32.9312 26.4671 23.6112 27.5124C20.0605 27.9111 18.1899 26.5337 17.7245 26.0217C17.2352 25.4817 17.1619 25.4577 16.9792 25.5591C16.6819 25.7244 16.8699 26.2004 16.9792 26.4844C17.2579 27.2084 18.3992 28.4924 20.3459 29.1324C22.0592 29.6951 26.2285 30.0031 31.2699 28.0524C36.9179 25.8684 41.3272 19.7911 40.0312 14.7124C38.7139 9.54706 30.1485 7.8484 22.0419 10.7284C17.2112 12.4431 11.9885 15.1337 8.23252 18.6457C3.76719 22.8217 3.05519 26.4577 3.34852 27.9764C4.39119 33.3737 11.8299 36.8884 14.8085 39.4924C14.6619 39.5737 14.5232 39.6497 14.3979 39.7191C12.9045 40.4577 7.23386 43.4257 5.81519 46.5604C4.20586 50.1164 6.07119 52.6684 7.30586 53.0124C11.1312 54.0764 15.0565 52.1617 17.1672 49.0151C19.2765 45.8697 19.0192 41.7724 18.0512 39.9031C18.0392 39.8804 18.0259 39.8577 18.0139 39.8337C18.3992 39.6057 18.7925 39.3737 19.1819 39.1444C19.9419 38.6977 20.6885 38.2817 21.3352 37.9297C20.9725 38.9217 20.7072 40.1124 20.5699 41.8311C20.4072 43.8497 21.2352 46.4591 22.3179 47.4857C22.7952 47.9377 23.3685 47.9484 23.7312 47.9484C24.9912 47.9484 25.5659 46.9004 26.1992 45.6604C26.9752 44.1404 27.6645 42.3697 27.6645 42.3697C27.6645 42.3697 26.8005 47.1511 29.1552 47.1511C30.0139 47.1511 30.8765 46.0377 31.2619 45.4711C31.2632 45.4777 31.2632 45.4804 31.2632 45.4804C31.2632 45.4804 31.2859 45.4431 31.3299 45.3697C31.4192 45.2337 31.4699 45.1471 31.4699 45.1471C31.4699 45.1471 31.4712 45.1377 31.4739 45.1217C31.8192 44.5231 32.5845 43.1577 33.7312 40.9057C35.2139 37.9964 36.6352 34.3511 36.6352 34.3511C36.6352 34.3511 36.7672 35.2417 37.2005 36.7164C37.4552 37.5831 37.9965 38.5417 38.4245 39.4617C38.0805 39.9391 37.8699 40.2124 37.8699 40.2124C37.8699 40.2124 37.8712 40.2177 37.8752 40.2271C37.6005 40.5924 37.2925 40.9857 36.9699 41.3697C35.7992 42.7631 34.4059 44.3551 34.2192 44.8137C33.9992 45.3551 34.0512 45.7524 34.4765 46.0737C34.7872 46.3071 35.3392 46.3444 35.9165 46.3057C36.9685 46.2351 37.7072 45.9737 38.0725 45.8151C38.6419 45.6137 39.3045 45.2977 39.9259 44.8404C41.0739 43.9964 41.7659 42.7897 41.6992 41.1897C41.6619 40.3084 41.3819 39.4351 41.0259 38.6111C41.1299 38.4617 41.2339 38.3097 41.3392 38.1577C43.1485 35.5124 44.5525 32.6057 44.5525 32.6057C44.5525 32.6057 44.6845 33.4964 45.1179 34.9711C45.3365 35.7164 45.7699 36.5311 46.1592 37.3284C44.4579 38.7111 43.4032 40.3177 43.0365 41.3711C42.3592 43.3204 42.8899 44.2031 43.8845 44.4044C44.3352 44.4951 44.9725 44.2884 45.4512 44.0857C46.0472 43.8884 46.7632 43.5591 47.4325 43.0671C48.5805 42.2231 49.6845 41.0417 49.6179 39.4431C49.5872 38.7151 49.3899 37.9924 49.1219 37.2991C50.5645 36.6977 52.4312 36.3644 54.8099 36.6417C59.9125 37.2377 60.9125 40.4231 60.7219 41.7564C60.5299 43.0897 59.4605 43.8231 59.1019 44.0444C58.7445 44.2657 58.6352 44.3431 58.6645 44.5071C58.7085 44.7457 58.8739 44.7377 59.1792 44.6857C59.5992 44.6151 61.8579 43.6017 61.9552 41.1404C62.0765 38.0124 59.0832 34.5804 53.7805 34.6084ZM14.4512 47.8671C12.7605 49.7111 10.4005 50.4071 9.38719 49.8204C8.29386 49.1871 8.72719 46.4724 10.8005 44.5151C12.0645 43.3231 13.6965 42.2244 14.7792 41.5484C15.0259 41.4004 15.3872 41.1831 15.8272 40.9191C15.9005 40.8777 15.9419 40.8551 15.9419 40.8551L15.9405 40.8524C16.0259 40.8017 16.1125 40.7497 16.2019 40.6951C16.9579 43.4804 16.2259 45.9324 14.4512 47.8671ZM26.7645 39.4977C26.1765 40.9324 24.9445 44.6044 24.1939 44.4071C23.5499 44.2377 23.1579 41.4471 24.0659 38.7004C24.5219 37.3177 25.4979 35.6657 26.0712 35.0244C26.9939 33.9924 28.0099 33.6551 28.2565 34.0737C28.5699 34.6071 27.1339 38.5977 26.7645 39.4977ZM36.9365 44.3511C36.6872 44.4817 36.4579 44.5631 36.3525 44.5004C36.2739 44.4537 36.4552 44.2817 36.4552 44.2817C36.4552 44.2817 37.7272 42.9124 38.2285 42.2897C38.5205 41.9271 38.8579 41.4964 39.2259 41.0164C39.2285 41.0644 39.2299 41.1124 39.2299 41.1591C39.2272 42.7991 37.6432 43.9057 36.9365 44.3511ZM44.7725 42.5644C44.5859 42.4324 44.6179 42.0044 45.2299 40.6697C45.4699 40.1457 46.0192 39.2644 46.9712 38.4217C47.0819 38.7684 47.1485 39.1004 47.1472 39.4097C47.1352 41.4737 45.6632 42.2444 44.7725 42.5644Z" fill="#F06292"/>
</svg>
