<svg width="65" height="64" viewBox="0 0 65 64" fill="none" xmlns="http://www.w3.org/2000/svg">
<path fill-rule="evenodd" clip-rule="evenodd" d="M11.9038 55.6044L10.1679 9.37644C10.1132 7.84978 11.2865 6.55778 12.8105 6.46444L43.6212 4.53778L45.9745 5.33378L49.0345 4.19911L52.1225 4.00578C53.6732 3.90711 55.0105 5.08444 55.1105 6.63511C55.1145 6.69511 55.1158 6.75644 55.1158 6.81778V57.1871C55.1145 58.7431 53.8519 60.0031 52.2959 60.0018C52.2545 60.0018 52.2132 60.0004 52.1732 59.9991L14.5919 58.3111C13.1279 58.2458 11.9598 57.0698 11.9038 55.6044Z" fill="#FF4081"/>
<path fill-rule="evenodd" clip-rule="evenodd" d="M49.0325 4.19824L43.6232 4.53424L43.3605 10.8822C43.3512 11.1142 43.5312 11.3089 43.7632 11.3196C43.8605 11.3236 43.9552 11.2942 44.0325 11.2356L46.4965 9.36491L48.5792 11.0062C48.7605 11.1502 49.0259 11.1196 49.1685 10.9382C49.2299 10.8596 49.2619 10.7622 49.2592 10.6622L49.0352 4.19958L49.0325 4.19824ZM44.8219 25.4502C43.8339 26.2196 36.4525 26.7436 36.4525 25.6489C36.6099 21.4689 34.7392 21.2862 33.6979 21.2862C32.7125 21.2862 31.0485 21.5836 31.0485 23.8236C31.0485 26.1049 33.4792 27.3929 36.3325 28.9049C40.3845 31.0529 45.2925 33.6542 45.2925 40.1942C45.2925 46.4662 40.1965 49.9276 33.7005 49.9276C26.9952 49.9276 21.1339 47.2142 21.7952 37.8089C22.0552 36.7062 30.5819 36.9689 30.5819 37.8089C30.4752 41.6902 31.3605 42.8316 33.5952 42.8316C35.3112 42.8316 36.0899 41.8849 36.0899 40.2942C36.0899 37.8836 33.5592 36.4609 30.6445 34.8262C26.6992 32.6116 22.0565 30.0049 22.0565 24.0209C22.0565 18.0516 26.1619 14.0702 33.4912 14.0702C40.8205 14.0702 44.8219 17.9916 44.8219 25.4502Z" fill="white"/>
</svg>
