<svg width="106" height="64" viewBox="0 0 106 64" fill="none" xmlns="http://www.w3.org/2000/svg">
<g clip-path="url(#clip0_428_817)">
<mask id="mask0_428_817" style="mask-type:luminance" maskUnits="userSpaceOnUse" x="0" y="0" width="106" height="63">
<path d="M0.53125 0H105.259V62.8364H0.53125V0Z" fill="white"/>
</mask>
<g mask="url(#mask0_428_817)">
<path fill-rule="evenodd" clip-rule="evenodd" d="M52.8949 0C38.9312 0 30.204 6.98182 26.7131 20.9455C31.9494 13.9636 38.0585 11.3455 45.0403 13.0909C49.0239 14.0858 51.8709 16.9775 55.0224 20.1755C60.156 25.3867 66.0983 31.4182 79.0767 31.4182C93.0403 31.4182 101.768 24.4364 105.259 10.4727C100.022 17.4545 93.9131 20.0727 86.9312 18.3273C82.9477 17.3324 80.1007 14.4407 76.9492 11.2427C71.8156 6.03151 65.8733 0 52.8949 0ZM26.7131 31.4182C12.7494 31.4182 4.02216 38.4 0.53125 52.3636C5.76761 45.3818 11.8767 42.7636 18.8585 44.5091C22.842 45.5059 25.6891 48.3956 28.8406 51.5937C33.9742 56.8048 39.9165 62.8364 52.8949 62.8364C66.8585 62.8364 75.5858 55.8545 79.0767 41.8909C73.8403 48.8727 67.7312 51.4909 60.7494 49.7455C56.7659 48.7505 53.9189 45.8589 50.7674 42.6608C45.6338 37.4497 39.6915 31.4182 26.7131 31.4182Z" fill="#38BDF8"/>
</g>
</g>
<defs>
<clipPath id="clip0_428_817">
<rect width="104.727" height="64" fill="white" transform="translate(0.53125)"/>
</clipPath>
</defs>
</svg>
