<svg width="65" height="64" viewBox="0 0 65 64" fill="none" xmlns="http://www.w3.org/2000/svg">
<g clip-path="url(#clip0_428_765)">
<path d="M61.5068 0H3.50684C1.84998 0 0.506836 1.34315 0.506836 3V61C0.506836 62.6569 1.84998 64 3.50684 64H61.5068C63.1637 64 64.5068 62.6569 64.5068 61V3C64.5068 1.34315 63.1637 0 61.5068 0Z" fill="#3178C6"/>
<path fill-rule="evenodd" clip-rule="evenodd" d="M37.6379 49.734V56.747C38.7741 57.331 40.1178 57.7695 41.6692 58.0615C43.2205 58.354 44.8556 58.5 46.5744 58.5C48.2496 58.5 49.8409 58.3395 51.3483 58.018C52.8563 57.6965 54.1778 57.167 55.3143 56.429C56.4503 55.691 57.3498 54.727 58.0128 53.536C58.6753 52.3455 59.0068 50.8735 59.0068 49.1203C59.0068 47.8493 58.8173 46.7353 58.4388 45.7783C58.0598 44.8214 57.5138 43.9704 56.7998 43.2252C56.0863 42.4801 55.2303 41.8117 54.2328 41.22C53.2348 40.6283 52.1098 40.0694 50.8568 39.5435C49.9392 39.1636 49.1162 38.7947 48.3879 38.4368C47.6596 38.0788 47.0405 37.7136 46.5307 37.341C46.0209 36.9684 45.6276 36.574 45.3508 36.1576C45.0741 35.7413 44.9357 35.27 44.9357 34.7441C44.9357 34.2619 45.0595 33.8273 45.3071 33.4402C45.5548 33.053 45.9044 32.7206 46.3559 32.443C46.8075 32.1655 47.361 31.95 48.0165 31.7966C48.672 31.6431 49.4003 31.5664 50.2014 31.5664C50.7843 31.5664 51.3993 31.6103 52.0478 31.6979C52.6958 31.7856 53.3478 31.9207 54.0033 32.1034C54.6588 32.286 55.2958 32.5161 55.9153 32.7937C56.5343 33.0713 57.1058 33.3927 57.6303 33.7579V27.2054C56.5668 26.7963 55.4053 26.4931 54.1453 26.2959C52.8853 26.0986 51.4398 26 49.8081 26C48.1476 26 46.5744 26.1789 45.0886 26.5369C43.6029 26.8948 42.2955 27.4537 41.1666 28.2134C40.0377 28.9731 39.1455 29.941 38.4901 31.1171C37.8346 32.2932 37.5068 33.6995 37.5068 35.3358C37.5068 37.4251 38.1077 39.2074 39.3094 40.683C40.5112 42.1587 42.3356 43.4078 44.7827 44.4305C45.7441 44.825 46.64 45.2122 47.4702 45.592C48.3005 45.9719 49.0179 46.3664 49.6224 46.7755C50.2269 47.1846 50.7038 47.6302 51.0533 48.1123C51.4033 48.5944 51.5778 49.1423 51.5778 49.7559C51.5778 50.209 51.4688 50.629 51.2503 51.016C51.0318 51.403 50.7003 51.739 50.2561 52.024C49.8118 52.309 49.2583 52.532 48.5955 52.6925C47.9327 52.853 47.1571 52.9335 46.2685 52.9335C44.7536 52.9335 43.2533 52.667 41.7675 52.1335C40.2817 51.6005 38.9052 50.8005 37.6379 49.734ZM25.8581 32.2772H35.0068V26.5H9.50684V32.2772H18.6108V58H25.8581V32.2772Z" fill="white"/>
</g>
<defs>
<clipPath id="clip0_428_765">
<rect width="64" height="64" fill="white" transform="translate(0.506836)"/>
</clipPath>
</defs>
</svg>
